# Blender v2.68 (sub 0) OBJ File: ''
# www.blender.org
mtllib room.mtl
o Cube.005
v 166.348969 48.317268 -108.310600
v 166.348969 48.317226 141.689407
v 116.348969 48.317268 -108.310646
v 166.348969 298.317261 -108.310478
v 116.348969 298.317261 -108.310562
v 166.348953 298.317200 141.689529
v 116.348969 48.317226 141.689392
v 116.348946 298.317200 141.689392
vn 0.000000 -1.000000 -0.000000
vn -0.000000 1.000000 0.000000
vn 1.000000 0.000000 0.000000
vn -0.000000 -0.000000 1.000000
vn -1.000000 -0.000000 -0.000000
vn 0.000002 0.000000 -1.000000
vn -0.000003 -0.000000 1.000000
vn 0.000001 0.000000 -1.000000
usemtl Material.001
s off
f 1//1 2//1 3//1
f 4//2 5//2 6//2
f 1//3 4//3 2//3
f 2//4 6//4 7//4
f 7//5 8//5 3//5
f 4//6 1//6 5//6
f 2//1 7//1 3//1
f 5//2 8//2 6//2
f 4//3 6//3 2//3
f 6//7 8//7 7//7
f 8//5 5//5 3//5
f 1//8 3//8 5//8
o Cube.004
v -133.651001 298.317261 -158.310562
v -133.651031 48.317276 -158.310562
v -133.651031 298.317322 -108.310585
v 116.349007 298.317200 -158.310562
v 116.348969 298.317261 -108.310562
v 116.348969 48.317204 -158.310532
v -133.651031 48.317295 -108.310600
v 116.348969 48.317322 -108.310570
vn -1.000000 0.000000 -0.000001
vn 1.000000 -0.000000 0.000001
vn 0.000000 0.000000 -1.000000
vn 0.000000 1.000000 -0.000001
vn 0.000000 -1.000000 0.000002
usemtl Material.001
s off
f 9//9 10//9 11//9
f 12//10 13//10 14//10
f 9//11 12//11 10//11
f 10//1 14//1 15//1
f 15//4 16//4 11//4
f 12//12 9//12 13//12
f 10//5 15//5 11//5
f 13//3 16//3 14//3
f 12//11 14//11 10//11
f 14//13 16//13 15//13
f 16//4 13//4 11//4
f 9//12 11//12 13//12
o Cube.002
v -133.651031 298.317261 -108.310532
v -133.651031 298.317200 141.689468
v -133.651031 348.317261 -108.310577
v 116.348969 298.317261 -108.310448
v 116.348969 348.317261 -108.310524
v 116.348969 298.317261 141.689545
v -133.651031 348.317200 141.689453
v 116.348969 348.317200 141.689438
vn 0.000000 -0.000002 -1.000000
vn 0.000000 0.000002 1.000000
vn 0.000000 -0.000001 -1.000000
usemtl Material.001
s off
f 17//5 18//5 19//5
f 20//3 21//3 22//3
f 17//1 20//1 18//1
f 18//4 22//4 23//4
f 23//2 24//2 19//2
f 20//14 17//14 21//14
f 18//5 23//5 19//5
f 21//3 24//3 22//3
f 20//1 22//1 18//1
f 22//15 24//15 23//15
f 24//2 21//2 19//2
f 17//16 19//16 21//16
o Cube.003
v -133.651031 48.317268 -108.310600
v -133.651031 48.317226 141.689392
v -183.651031 48.317268 -108.310669
v -133.651031 298.317261 -108.310501
v -183.651031 298.317261 -108.310585
v -133.651047 298.317200 141.689499
v -183.651031 48.317226 141.689362
v -183.651047 298.317200 141.689377
vn -0.000001 -0.000000 1.000000
vn -0.000002 -0.000000 1.000000
usemtl Material.001
s off
f 25//1 26//1 27//1
f 28//2 29//2 30//2
f 25//3 28//3 26//3
f 26//17 30//17 31//17
f 31//5 32//5 27//5
f 28//6 25//6 29//6
f 26//1 31//1 27//1
f 29//2 32//2 30//2
f 28//3 30//3 26//3
f 30//18 32//18 31//18
f 32//5 29//5 27//5
f 25//8 27//8 29//8
o Cube.001
v -133.651031 -1.682732 -108.310608
v -133.651031 -1.682773 141.689392
v -133.651031 48.317219 -108.310646
v 116.348969 -1.682732 -108.310524
v 116.348969 48.317242 -108.310600
v 116.348969 -1.682748 141.689484
v -133.651031 48.317200 141.689392
v 116.348969 48.317226 141.689362
usemtl Material.001
s off
f 33//5 34//5 35//5
f 36//3 37//3 38//3
f 33//1 36//1 34//1
f 34//4 38//4 39//4
f 39//2 40//2 35//2
f 36//14 33//14 37//14
f 34//5 39//5 35//5
f 37//3 40//3 38//3
f 36//1 38//1 34//1
f 38//15 40//15 39//15
f 40//2 37//2 35//2
f 33//16 35//16 37//16
o Cube
v 25.000000 -25.000000 -24.999998
v 25.000000 -25.000000 25.000000
v -25.000004 -25.000000 24.999996
v -24.999990 -25.000000 -25.000010
v 25.000011 25.000000 -24.999987
v 24.999983 25.000000 25.000015
v -25.000010 25.000000 24.999990
v -24.999998 25.000000 -25.000000
usemtl Material
s off
f 41//1 42//1 44//1
f 45//2 48//2 46//2
f 41//3 45//3 42//3
f 42//4 46//4 43//4
f 43//5 47//5 44//5
f 45//11 41//11 48//11
f 42//1 43//1 44//1
f 48//2 47//2 46//2
f 45//10 46//10 42//10
f 46//4 47//4 43//4
f 47//5 48//5 44//5
f 41//11 44//11 48//11
