# Blender v2.68 (sub 0) OBJ File: ''
# www.blender.org
mtllib room.mtl
o Cube.004
v -5.346040 11.932690 -6.332424
v -5.346041 1.932690 -6.332423
v -5.346041 1.932691 -4.332424
v -5.346041 11.932692 -4.332425
v 4.653960 11.932687 -6.332424
v 4.653959 1.932687 -6.332422
v 4.653959 1.932692 -4.332423
v 4.653959 11.932690 -4.332424
vn -1.000000 0.000000 -0.000000
vn 1.000000 -0.000000 0.000000
vn 0.000000 -0.000000 -1.000000
vn -0.000000 -1.000000 0.000000
vn -0.000000 0.000000 1.000000
vn 0.000000 1.000000 -0.000001
vn 0.000000 -1.000000 0.000002
usemtl Material
s off
f 1//1 2//1 4//1
f 5//2 8//2 6//2
f 1//3 5//3 2//3
f 2//4 6//4 3//4
f 3//5 7//5 4//5
f 5//6 1//6 8//6
f 2//1 3//1 4//1
f 8//2 7//2 6//2
f 5//3 6//3 2//3
f 6//7 7//7 3//7
f 7//5 8//5 4//5
f 1//6 4//6 8//6
o Cube.003
v -5.346041 1.932690 -4.332424
v -5.346041 1.932690 5.667575
v -7.346041 1.932690 5.667574
v -7.346041 1.932690 -4.332427
v -5.346041 11.932690 -4.332422
v -5.346042 11.932690 5.667578
v -7.346042 11.932690 5.667573
v -7.346041 11.932690 -4.332425
vn -0.000000 1.000000 0.000000
vn 0.000001 0.000000 -1.000000
vn -0.000002 0.000000 1.000000
usemtl Material
s off
f 9//4 10//4 12//4
f 13//8 16//8 14//8
f 9//2 13//2 10//2
f 10//5 14//5 11//5
f 11//1 15//1 12//1
f 13//9 9//9 16//9
f 10//4 11//4 12//4
f 16//8 15//8 14//8
f 13//2 14//2 10//2
f 14//10 15//10 11//10
f 15//1 16//1 12//1
f 9//9 12//9 16//9
o Cube.002
v -5.346041 11.932690 -4.332423
v -5.346041 11.932690 5.667577
v -5.346041 13.932689 5.667576
v -5.346041 13.932689 -4.332425
v 4.653959 11.932690 -4.332420
v 4.653959 11.932692 5.667580
v 4.653959 13.932690 5.667575
v 4.653959 13.932690 -4.332423
vn 0.000000 -0.000001 -1.000000
vn 0.000000 0.000002 1.000000
usemtl Material
s off
f 17//1 18//1 20//1
f 21//2 24//2 22//2
f 17//4 21//4 18//4
f 18//5 22//5 19//5
f 19//8 23//8 20//8
f 21//11 17//11 24//11
f 18//1 19//1 20//1
f 24//2 23//2 22//2
f 21//4 22//4 18//4
f 22//12 23//12 19//12
f 23//8 24//8 20//8
f 17//11 20//11 24//11
o Cube.001
v -5.346041 -0.067310 -4.332424
v -5.346041 -0.067310 5.667576
v -5.346041 1.932689 5.667575
v -5.346041 1.932688 -4.332426
v 4.653959 -0.067310 -4.332421
v 4.653959 -0.067309 5.667579
v 4.653959 1.932690 5.667574
v 4.653959 1.932689 -4.332424
usemtl Material
s off
f 25//1 26//1 28//1
f 29//2 32//2 30//2
f 25//4 29//4 26//4
f 26//5 30//5 27//5
f 27//8 31//8 28//8
f 29//11 25//11 32//11
f 26//1 27//1 28//1
f 32//2 31//2 30//2
f 29//4 30//4 26//4
f 30//12 31//12 27//12
f 31//8 32//8 28//8
f 25//11 28//11 32//11
o Cube
v 6.653959 1.932690 -4.332424
v 6.653959 1.932690 5.667576
v 4.653959 1.932690 5.667575
v 4.653959 1.932690 -4.332426
v 6.653959 11.932690 -4.332421
v 6.653958 11.932690 5.667579
v 4.653958 11.932690 5.667574
v 4.653959 11.932690 -4.332424
usemtl Material
s off
f 33//4 34//4 36//4
f 37//8 40//8 38//8
f 33//2 37//2 34//2
f 34//5 38//5 35//5
f 35//1 39//1 36//1
f 37//9 33//9 40//9
f 34//4 35//4 36//4
f 40//8 39//8 38//8
f 37//2 38//2 34//2
f 38//10 39//10 35//10
f 39//1 40//1 36//1
f 33//9 36//9 40//9
